<svg width="120" height="100" viewBox="0 0 120 100" fill="none" xmlns="http://www.w3.org/2000/svg">
<g id="triagles" clip-path="url(#clip0_1_2)">
<g id="lightGroup">
<path id="light1" opacity="0.8" d="M57 51.2679C58.3333 52.0377 58.3333 53.9623 57 54.7321L25.5 72.9186C24.1667 73.6884 22.5 72.7261 22.5 71.1865L22.5 34.8135C22.5 33.2739 24.1667 32.3116 25.5 33.0814L57 51.2679Z" fill="#5990FD" fill-opacity="0.7"/>
<path id="light2" d="M43 51.2679C44.3333 52.0377 44.3333 53.9623 43 54.7321L11.5 72.9186C10.1667 73.6884 8.5 72.7261 8.5 71.1865L8.5 34.8135C8.5 33.2739 10.1667 32.3116 11.5 33.0814L43 51.2679Z" fill="#5890FD" fill-opacity="0.7"/>
</g>
<g id="darkGroup">
<path id="dark1" opacity="0.8" d="M43 51.2679C44.3333 52.0377 44.3333 53.9623 43 54.7321L11.5 72.9186C10.1667 73.6884 8.5 72.7261 8.5 71.1865L8.5 34.8135C8.5 33.2739 10.1667 32.3116 11.5 33.0814L43 51.2679Z" fill="#1D4BC2" fill-opacity="0.7"/>
</g>
</g>
<defs>
<clipPath id="clip0_1_2">
<rect width="120" height="100" fill="white"/>
</clipPath>
</defs>
</svg>
